# xmcd CD database file
#
# Track frame offsets:
#	151
#	7916
#	27987
#	56160
#	85651
#
# Disc length: 1552 seconds
#
# Revision: 0
# Processed by: cddbd v1.5.2PL0 Copyright (c) Steve Scherf et al.
# Submitted via: CDex 1.51
#
DISCID=30060e05
DTITLE=Hans Blues and Boogie - and the Hammond Band
DYEAR=1998
DGENRE=Blues
TTITLE0=Opener in G
TTITLE1=Gettin' drunk on you
TTITLE2=Fightin' for your love
TTITLE3=Good times gone
TTITLE4=Tiebreak
EXTD=YEAR: 1998
EXTT0=
EXTT1=
EXTT2=
EXTT3=
EXTT4=
PLAYORDER=
